<svg width="32" height="32" xmlns="http://www.w3.org/2000/svg">

 <g>
  <title>background</title>
  <rect fill="none" id="canvas_background" height="402" width="582" y="-1" x="-1"/>
 </g>
 <g>
  <title>Layer 1</title>
  <path stroke="#FFFFFF" id="svg_3" fill="none" d="m16.005,31.688231c-8.615,0 -15.625,-7.01 -15.625,-15.625s7.01,-15.625 15.625,-15.625s15.625,7.01 15.625,15.625s-7.01,15.625 -15.625,15.625z"/>
  <path id="svg_5" fill="#ffffff" d="m24.299,22.932l0,-6.137c0,-3.288 -1.755,-4.818 -4.096,-4.818c-1.889,0 -2.735,1.039 -3.206,1.768l0,-1.517l-3.558,0c0.047,1.005 0,10.704 0,10.704l3.558,0l0,-5.978c0,-0.319 0.023,-0.639 0.117,-0.867c0.257,-0.639 0.842,-1.301 1.825,-1.301c1.288,0 1.803,0.981 1.803,2.42l0,5.727l3.557,-0.001l0,0zm-14.609,-12.165c1.24,0 2.013,-0.823 2.013,-1.85c-0.023,-1.05 -0.773,-1.849 -1.99,-1.849s-2.012,0.798 -2.012,1.848c0,1.028 0.772,1.85 1.967,1.85l0.022,0l0,0.001zm1.779,12.165l0,-10.704l-3.557,0l0,10.704l3.557,0z"/>
 </g>
</svg>